<mxfile host="app.diagrams.net" agent="Mozilla/5.0 (Windows NT 10.0; Win64; x64) AppleWebKit/537.36 (KHTML, like Gecko) Chrome/127.0.0.0 Safari/537.36" version="24.7.7">
  <diagram name="페이지-1" id="MgrwY2CHGGZHqusmFgQK">
    <mxGraphModel dx="1006" dy="824" grid="0" gridSize="10" guides="1" tooltips="1" connect="1" arrows="1" fold="1" page="0" pageScale="1" pageWidth="827" pageHeight="1169" math="0" shadow="0">
      <root>
        <mxCell id="0" />
        <mxCell id="1" parent="0" />
        <UserObject label="이용자&lt;div&gt;&lt;br&gt;&lt;/div&gt;" tooltip="ses" id="iLJIrUYBL1lYsp3z0eWA-1">
          <mxCell style="shape=umlActor;verticalLabelPosition=bottom;verticalAlign=top;html=1;outlineConnect=0;direction=east;" vertex="1" parent="1">
            <mxGeometry x="-396" y="-304" width="30" height="60" as="geometry" />
          </mxCell>
        </UserObject>
        <mxCell id="iLJIrUYBL1lYsp3z0eWA-6" value="" style="whiteSpace=wrap;html=1;aspect=fixed;" vertex="1" parent="1">
          <mxGeometry x="-325" y="-321" width="358" height="358" as="geometry" />
        </mxCell>
      </root>
    </mxGraphModel>
  </diagram>
</mxfile>
